<svg xmlns="http://www.w3.org/2000/svg" viewBox="0 0 140 140"><defs><style>.cls-1{fill:#e8cc00;}.cls-2{fill:#f1db00;}.cls-3{fill:#f5e204;}.cls-4{fill:#8c181b;}.cls-5{fill:#e40f2c;}</style></defs><title>Mesa de trabajo 7</title><g id="Capa_1" data-name="Capa 1"><rect class="cls-1" x="35" y="12.48" width="24.23" height="38.83" rx="5.15" ry="5.15"/><rect class="cls-1" x="11.03" y="36.39" width="15.95" height="38.83" rx="5.15" ry="5.15"/><rect class="cls-1" x="20" y="20.73" width="21.94" height="38.83" rx="5.15" ry="5.15"/><rect class="cls-1" x="51.12" y="4.6" width="37.48" height="38.83" rx="5.15" ry="5.15"/><rect class="cls-1" x="2.66" y="52.27" width="14.86" height="38.83" rx="5.15" ry="5.15"/><rect class="cls-2" x="10.28" y="52.27" width="62.07" height="38.83" rx="5.15" ry="5.15"/><rect class="cls-2" x="40.29" y="23.06" width="60.49" height="38.83" rx="5.15" ry="5.15" transform="translate(113.01 -28.06) rotate(90)"/><rect class="cls-1" x="112.83" y="36.39" width="15.95" height="38.83" rx="5.15" ry="5.15" transform="translate(241.6 111.62) rotate(180)"/><rect class="cls-1" x="97.87" y="20.73" width="21.94" height="38.83" rx="5.15" ry="5.15" transform="translate(217.67 80.28) rotate(-180)"/><rect class="cls-1" x="80.58" y="12.48" width="24.23" height="38.83" rx="5.15" ry="5.15" transform="translate(185.38 63.78) rotate(-180)"/><rect class="cls-1" x="51.2" y="4.6" width="37.48" height="38.83" rx="5.15" ry="5.15" transform="translate(139.88 48.03) rotate(-180)"/><rect class="cls-1" x="122.28" y="52.27" width="14.86" height="38.83" rx="5.15" ry="5.15" transform="translate(259.43 143.37) rotate(180)"/><rect class="cls-2" x="67.45" y="52.27" width="62.07" height="38.83" rx="5.15" ry="5.15" transform="translate(196.97 143.37) rotate(180)"/><rect class="cls-1" x="11.03" y="68.31" width="15.95" height="38.83" rx="5.15" ry="5.15"/><rect class="cls-1" x="20" y="83.97" width="21.94" height="38.83" rx="5.15" ry="5.15"/><rect class="cls-1" x="35" y="92.22" width="24.23" height="38.83" rx="5.15" ry="5.15"/><rect class="cls-1" x="51.12" y="100.1" width="37.48" height="38.83" rx="5.15" ry="5.15"/><rect class="cls-1" x="2.66" y="52.43" width="14.86" height="38.83" rx="5.15" ry="5.15"/><rect class="cls-2" x="40.29" y="81.64" width="60.49" height="38.83" rx="5.15" ry="5.15" transform="translate(-30.52 171.59) rotate(-90)"/><rect class="cls-1" x="112.83" y="68.31" width="15.95" height="38.83" rx="5.15" ry="5.15" transform="translate(241.6 175.44) rotate(-180)"/><rect class="cls-1" x="97.87" y="83.97" width="21.94" height="38.83" rx="5.15" ry="5.15" transform="translate(217.67 206.77) rotate(180)"/><rect class="cls-1" x="80.58" y="92.22" width="24.23" height="38.83" rx="5.15" ry="5.15" transform="translate(185.38 223.27) rotate(180)"/><rect class="cls-1" x="51.2" y="100.1" width="37.48" height="38.83" rx="5.15" ry="5.15" transform="translate(139.88 239.02) rotate(180)"/><rect class="cls-1" x="122.28" y="52.43" width="14.86" height="38.83" rx="5.15" ry="5.15" transform="translate(259.43 143.69) rotate(-180)"/><rect class="cls-3" x="18.66" y="37.91" width="10.31" height="38.83" rx="5.15" ry="5.15"/><rect class="cls-3" x="27.62" y="29.23" width="22.23" height="38.83" rx="5.15" ry="5.15"/><rect class="cls-3" x="37.75" y="18.79" width="35.2" height="38.83" rx="5.15" ry="5.15" transform="translate(93.56 -17.15) rotate(90)"/><rect class="cls-3" x="110.84" y="37.91" width="10.31" height="38.83" rx="5.15" ry="5.15" transform="translate(231.99 114.64) rotate(-180)"/><rect class="cls-3" x="89.95" y="29.23" width="22.23" height="38.83" rx="5.15" ry="5.15" transform="translate(202.13 97.28) rotate(-180)"/><rect class="cls-3" x="39.02" y="23.06" width="60.49" height="38.83" rx="5.15" ry="5.15" transform="translate(111.74 -26.79) rotate(90)"/><rect class="cls-3" x="66.85" y="18.79" width="35.2" height="38.83" rx="5.15" ry="5.15" transform="translate(122.66 -46.24) rotate(90)"/><rect class="cls-3" x="10.28" y="52.43" width="62.07" height="38.83" rx="5.15" ry="5.15"/><rect class="cls-3" x="18.66" y="66.8" width="10.31" height="38.83" rx="5.15" ry="5.15"/><rect class="cls-3" x="27.62" y="75.47" width="22.23" height="38.83" rx="5.15" ry="5.15"/><rect class="cls-3" x="37.75" y="85.91" width="35.2" height="38.83" rx="5.15" ry="5.15" transform="translate(-49.97 160.68) rotate(-90)"/><rect class="cls-3" x="67.45" y="52.43" width="62.07" height="38.83" rx="5.15" ry="5.15" transform="translate(196.97 143.69) rotate(-180)"/><rect class="cls-3" x="110.84" y="66.8" width="10.31" height="38.83" rx="5.15" ry="5.15" transform="translate(231.99 172.42) rotate(180)"/><rect class="cls-3" x="89.95" y="75.47" width="22.23" height="38.83" rx="5.15" ry="5.15" transform="translate(202.13 189.77) rotate(180)"/><rect class="cls-3" x="39.02" y="81.64" width="60.49" height="38.83" rx="5.15" ry="5.15" transform="translate(-31.79 170.32) rotate(-90)"/><rect class="cls-3" x="66.85" y="85.91" width="35.2" height="38.83" rx="5.15" ry="5.15" transform="translate(-20.87 189.77) rotate(-90)"/><rect class="cls-1" x="60.18" y="39.46" width="24.32" height="13.14" rx="2.71" ry="2.71" transform="translate(144.67 92.05) rotate(180)"/><rect class="cls-1" x="71.66" y="46.97" width="24.32" height="13.14" rx="2.71" ry="2.71" transform="translate(167.63 107.07) rotate(180)"/><rect class="cls-1" x="75.68" y="42.02" width="19.8" height="36.18" rx="2.71" ry="2.71" transform="translate(171.17 120.23) rotate(180)"/><rect class="cls-1" x="78.75" y="47.13" width="9.03" height="36.18" rx="2.71" ry="2.71" transform="translate(166.53 130.45) rotate(180)"/><rect class="cls-1" x="81.73" y="89.27" width="12.31" height="8.2" rx="2.71" ry="2.71" transform="translate(175.76 186.74) rotate(180)"/><rect class="cls-1" x="74.32" y="81.08" width="13.9" height="8.2" rx="2.71" ry="2.71" transform="translate(162.55 170.35) rotate(180)"/><rect class="cls-1" x="57.39" y="42.02" width="24.32" height="4.91" rx="2.45" ry="2.45" transform="translate(139.1 88.95) rotate(-180)"/><rect class="cls-1" x="66.99" y="51.08" width="24.32" height="4.91" rx="2.45" ry="2.45" transform="translate(158.29 107.07) rotate(180)"/><rect class="cls-4" x="74.95" y="66.44" width="18.17" height="5.36" rx="2.68" ry="2.68" transform="translate(14.92 153.16) rotate(-90)"/><rect class="cls-4" x="74.03" y="68.99" width="18.17" height="3.5" rx="1.75" ry="1.75" transform="translate(12.38 153.85) rotate(-90)"/><rect class="cls-4" x="72.66" y="48.91" width="6.82" height="3.5" rx="1.75" ry="1.75" transform="translate(25.41 126.74) rotate(-90)"/><rect class="cls-4" x="74.27" y="51.04" width="7.1" height="3.5" rx="1.75" ry="1.75" transform="translate(25.04 130.61) rotate(-90)"/><rect class="cls-1" x="48.91" y="92.1" width="26.49" height="6.06" rx="3.03" ry="3.03" transform="translate(-32.98 157.29) rotate(-90)"/><rect class="cls-1" x="40.3" y="71.45" width="13.95" height="5.3" rx="2.65" ry="2.65" transform="translate(-26.83 121.37) rotate(-90)"/><rect class="cls-1" x="49.08" y="74.93" width="5.38" height="8.54" rx="2.69" ry="2.69" transform="translate(-27.43 130.97) rotate(-90)"/><rect class="cls-5" x="79.6" y="96.28" width="16.37" height="7.01" rx="3.51" ry="3.51" transform="translate(175.56 199.57) rotate(180)"/><rect class="cls-5" x="76.07" y="99.34" width="22.4" height="7.01" rx="3.51" ry="3.51" transform="translate(174.54 205.69) rotate(-180)"/><rect class="cls-4" x="76.07" y="103.29" width="18.87" height="7.01" rx="3.51" ry="3.51" transform="translate(171.02 213.59) rotate(180)"/><rect class="cls-4" x="87.78" y="96.28" width="14.51" height="7.01" rx="3.51" ry="3.51" transform="translate(190.07 199.57) rotate(-180)"/><rect class="cls-4" x="84.86" y="99.34" width="13.53" height="7.01" rx="3.51" ry="3.51" transform="translate(183.25 205.69) rotate(-180)"/><rect class="cls-4" x="55.83" y="99.67" width="12.64" height="6.06" rx="3.03" ry="3.03" transform="translate(-40.55 164.86) rotate(-90)"/><rect class="cls-5" x="43.76" y="103.29" width="39.36" height="7.01" rx="3.51" ry="3.51" transform="translate(126.87 213.59) rotate(-180)"/><rect class="cls-5" x="74.95" y="62.55" width="18.17" height="5.36" rx="2.68" ry="2.68" transform="translate(18.81 149.26) rotate(-90)"/><rect class="cls-5" x="79.41" y="54.52" width="5.68" height="5.36" rx="1.32" ry="1.32" transform="translate(25.06 139.44) rotate(-90)"/><rect class="cls-5" x="75.91" y="52.95" width="5.68" height="5.36" rx="1.32" ry="1.32" transform="translate(23.12 134.38) rotate(-90)"/><rect class="cls-1" x="49.7" y="37.91" width="4.91" height="4.91" rx="2.45" ry="2.45" transform="translate(104.3 80.72) rotate(180)"/><rect class="cls-1" x="38.14" y="60.04" width="10.2" height="6.57" rx="3.29" ry="3.29" transform="translate(86.48 126.65) rotate(180)"/><rect class="cls-3" x="43.24" y="60.04" width="10.84" height="6.57" rx="3.29" ry="3.29" transform="translate(97.31 126.65) rotate(180)"/><rect class="cls-1" x="52.15" y="35.45" width="4.91" height="4.91" rx="2.45" ry="2.45" transform="translate(109.21 75.81) rotate(-180)"/><rect class="cls-1" x="54.53" y="33" width="4.91" height="7.08" rx="2.45" ry="2.45" transform="translate(113.97 73.08) rotate(-180)"/><rect class="cls-1" x="57.93" y="31.03" width="24.32" height="13.14" rx="2.71" ry="2.71" transform="translate(140.18 75.21) rotate(180)"/><rect class="cls-1" x="47.5" y="39.27" width="24.32" height="4.91" rx="2.45" ry="2.45" transform="translate(119.32 83.44) rotate(180)"/><rect class="cls-1" x="47.47" y="39.27" width="4.91" height="17.93" rx="2.45" ry="2.45" transform="translate(99.85 96.46) rotate(-180)"/><rect class="cls-1" x="77.34" y="31.03" width="4.91" height="4.91" rx="2.45" ry="2.45" transform="translate(159.59 66.98) rotate(180)"/><rect class="cls-1" x="81.36" y="33" width="4.91" height="11.18" rx="2.45" ry="2.45" transform="translate(167.63 77.17) rotate(180)"/><rect class="cls-1" x="84.5" y="36.44" width="4.91" height="7.06" rx="2.45" ry="2.45" transform="translate(173.9 79.93) rotate(180)"/><rect class="cls-1" x="84.5" y="77.72" width="4.91" height="4.91" rx="2.45" ry="2.45" transform="translate(173.9 160.35) rotate(-180)"/><rect class="cls-1" x="86.95" y="39.57" width="4.91" height="4.91" rx="2.45" ry="2.45" transform="translate(178.81 84.05) rotate(180)"/><rect class="cls-1" x="86.95" y="75.16" width="4.91" height="4.91" rx="2.45" ry="2.45" transform="translate(178.81 155.22) rotate(-180)"/></g></svg>