<svg xmlns="http://www.w3.org/2000/svg" viewBox="0 0 144.87 200"><defs><style>.cls-1{fill:#f5e204;}.cls-2{fill:#e8cc00;}.cls-3{fill:#6bb3d2;}.cls-4{fill:#506b93;}.cls-5{fill:#e40c28;}.cls-6{fill:#a3191d;}.cls-7{fill:#657b44;}</style></defs><title>Mesa de trabajo 5</title><g id="Capa_1" data-name="Capa 1"><path class="cls-1" d="M67.65,1.84a5.23,5.23,0,0,1,5-1.77c0,7.35,0,14.69-.1,22-5.68.24-11.78-.78-17,2.15-7.42,3.56-11.61,11.92-11.06,20A21.13,21.13,0,0,0,24.26,55.62c16.09.13,32.18,0,48.27.06,0,7.39.15,14.79-.06,22.17-20.34,0-40.69.14-61,0C5.79,77.1-.14,72.73,0,66.56S5.84,56.49,11.27,55.41c-.21-6,5.06-10.9,10.86-11.18.1-10.3,8.8-18.61,18.38-20.9,1.5-.58,3.88-.22,4.42-2.17a13.52,13.52,0,0,1,10.75-9.87c3.55-.34,7.12-.11,10.68-.16C66.63,8.05,65.38,4.4,67.65,1.84Z"/><path class="cls-1" d="M33.51,94.42a5.22,5.22,0,0,1,5.1-5.63c.78,7.49-.66,15.1.92,22.51-3,.29-6.14-2.2-6-5.33C33.45,102.12,33.5,98.27,33.51,94.42Z"/><path class="cls-1" d="M55.65,94.39a5.43,5.43,0,0,1,5-5.71c1.29,7.46-.23,15.07,1,22.53H59.26c-1.47-1.19-3.54-2.37-3.55-4.51C55.57,102.6,55.7,98.5,55.65,94.39Z"/><path class="cls-1" d="M77.75,94.36a6.44,6.44,0,0,1,2.94-5.27l2.51.5c.18,6-.07,12,0,18-.12,1.47,1,2.52,1.74,3.64-1.18,0-2.35-.07-3.52-.07-1.58-1.11-3.41-2.43-3.6-4.53C77.6,102.55,77.7,98.45,77.75,94.36Z"/><path class="cls-1" d="M66.83,124.91c1.52-1.56,3.27-3.15,5.6-3.09l1.64.46-1.4.17c-.34,6.25,0,12.52-.17,18.78a4.54,4.54,0,0,1-1.45,3.34c-2,.52-3.91,2-4.13,4.19a74.46,74.46,0,0,0,.14,13.78c.06,2.11,2.15,3.17,3.85,3.88.62.39,1.25.79,1.86,1.21-.11,3.36-.2,6.73-.44,10.09-12.91,0-25.83.11-38.74,0,1.22-5.3,5.51-10.23,11.11-10.86,3.67-.76,7.42-.33,11.13-.51,0-7.23.16-14.47-.08-21.69-2.68-.84-5.78-.15-8.61-.3-2.49-2.18-4-6.11-1.69-9,2.28-3.33,6.79-1.92,10.19-2.2.29-3.34-1.07-7.71,2.15-10C60.61,120.75,64.91,122,66.83,124.91Z"/><path class="cls-1" d="M22.16,189c16.78.28,33.59-.2,50.38.34.16,3.51,0,7,0,10.57q-25.18.14-50.38,0C22.16,196.29,22.12,192.65,22.16,189Z"/><path class="cls-2" d="M72.67.07c1.88.2,3.9.82,4.82,2.65,1.25,2.65.87,5.68,1,8.51,5,.32,10.45-1.07,15,1.75,3.56,2,5.59,5.74,6.68,9.54A28.16,28.16,0,0,1,117,31.1c3.16,3.65,5.45,8.33,5.17,13.26,6-.11,11.69,5,11.4,11.1,5.28,1,10.48,4.58,11.28,10.22.5,6.37-5.35,11.47-11.37,12-20.33.29-40.66,0-61,.16.2-7.38,0-14.78.06-22.17q23.8,0,47.6,0l-.25-.84c-3.52-7-11.48-11.08-19.23-10.68,0-5.47-1.39-11.15-5.17-15.28A20.47,20.47,0,0,0,83.3,22.24a90.07,90.07,0,0,0-10.72-.13C72.7,14.76,72.66,7.42,72.67.07Z"/><path class="cls-2" d="M38.62,88.79l0-.56c2.54.57,5.6,1.42,6.28,4.32.63,4.15.23,8.4.3,12.58.14,3.12-2.3,6.37-5.64,6.16C38,103.89,39.39,96.28,38.62,88.79Z"/><path class="cls-2" d="M60.62,88.68c1.3.18,2.61.34,3.91.48,1,1.34,2.76,2.54,2.64,4.42,0,4.1.06,8.2,0,12.3a5.28,5.28,0,0,1-5.55,5.33C60.39,103.75,61.92,96.14,60.62,88.68Z"/><path class="cls-2" d="M80.69,89.09c3.26-.86,7.37,0,8.46,3.6.25,4.39.11,8.8.11,13.2.07,2.61-2,4.58-4.32,5.34-.75-1.12-1.86-2.17-1.74-3.64-.08-6,.17-12,0-18Z"/><path class="cls-2" d="M103.23,89.22c2.26-.57,5.15-.66,6.71,1.42,2.18,2,1.31,5.26,1.52,7.9-.24,3.42.67,7.12-.94,10.29-2.48,3.84-9.38,3-10.42-1.61-.39-4.27-.08-8.59-.15-12.87A5.46,5.46,0,0,1,103.23,89.22Z"/><path class="cls-2" d="M78.07,125.93a5.73,5.73,0,0,1,9.09-2.65c3.06,2.37,1.94,6.62,2.14,9.94,3.21.22,7.33-1,9.65,2s1.11,7-1.61,9c-2.7,0-5.41,0-8.11,0-.16,7.38,0,14.76-.11,22.15,4,.17,8,.43,12.06.68,5.35,1,8.94,5.75,10.25,10.78-13-.14-26.06-.07-39.1,0,.25-3.37.33-6.73.44-10.09-.61-.42-1.24-.83-1.86-1.21l2.66.57c1.83-1,4.29-2.21,4.37-4.63.16-4.57.13-9.16,0-13.73-.11-2.47-2.57-3.69-4.48-4.69l-2.42.63a4.54,4.54,0,0,0,1.45-3.34c.18-6.26-.17-12.53.17-18.78l1.4-.17C76,122.67,77,124.49,78.07,125.93Z"/><path class="cls-2" d="M72.53,189.36c9.29.16,18.59.06,27.88.08,3.94,0,7.91.21,11.84-.33,3.32-.21,6.65,0,10-.11.15,3.64,0,7.28.09,10.92q-24.91-.11-49.82,0C72.51,196.4,72.7,192.87,72.53,189.36Z"/><path class="cls-3" d="M55.61,24.26c5.19-2.92,11.29-1.91,17-2.15a90.07,90.07,0,0,1,10.72.13c-3.66,0-7.32,0-11,.09-.18,11-.11,22.06,0,33.07,14.55.28,29.11,0,43.67.13a10.84,10.84,0,0,0,3.91-.7l.25.84q-23.8,0-47.6,0c-16.09,0-32.18.07-48.27-.06A21.13,21.13,0,0,1,44.55,44.25C44,36.18,48.18,27.82,55.61,24.26Z"/><path class="cls-3" d="M33.39,188c.16-3.44,0-6.89.2-10.32,12.91.16,25.83,0,38.74,0a59.34,59.34,0,0,0,.34,11.05c-8.48.52-17,.13-25.48.25-4.39-.14-8.81.26-13.18-.2Z"/><path class="cls-4" d="M72.31,22.33c3.66-.07,7.32-.12,11-.09a20.47,20.47,0,0,1,12.18,6.64c3.78,4.13,5.16,9.81,5.17,15.28,7.75-.4,15.71,3.65,19.23,10.68a10.84,10.84,0,0,1-3.91.7c-14.56-.16-29.12.15-43.67-.13C72.2,44.39,72.13,33.36,72.31,22.33Z"/><path class="cls-4" d="M72.33,177.72c13,0,26.06-.11,39.1,0H112c-.32,3.69.6,7.57-.54,11.14-3.41-.48-6.85-.16-10.27-.23-9.52.06-19-.13-28.56.1A59.34,59.34,0,0,1,72.33,177.72Z"/><path class="cls-5" d="M11.43,77.8c20.35.19,40.7.09,61,0-.11,14.66-.08,29.31,0,44-2.33-.06-4.08,1.53-5.6,3.09-1.93-2.91-6.22-4.15-9-1.77-3.22,2.29-1.85,6.65-2.15,10-3.4.28-7.91-1.14-10.19,2.2-2.33,2.87-.8,6.8,1.69,9-13.2-.34-24.66-12.22-24.93-25.36,0-6.68-.11-13.35.06-20-3.42-1.11-6.95-2.8-8.77-6.07C10.51,88.41,11.42,82.83,11.43,77.8ZM33.51,94.42c0,3.85-.06,7.7,0,11.55-.13,3.12,3,5.61,6,5.33,3.34.2,5.78-3,5.64-6.16-.07-4.19.33-8.43-.3-12.58-.69-2.9-3.74-3.75-6.28-4.32l0,.56A5.22,5.22,0,0,0,33.51,94.42Zm22.14,0c0,4.1-.07,8.21.07,12.31,0,2.15,2.07,3.33,3.55,4.51h2.37a5.28,5.28,0,0,0,5.55-5.33c0-4.1,0-8.2,0-12.3.12-1.88-1.61-3.08-2.64-4.42-1.3-.14-2.61-.3-3.91-.48A5.43,5.43,0,0,0,55.65,94.39Z"/><path class="cls-6" d="M72.48,77.85c20.33-.2,40.67.13,61-.16-.19,4.87,1.19,10.29-1.61,14.66-1.79,3.51-5.42,5.56-9.11,6.55.07,6.42,0,12.85,0,19.27A27,27,0,0,1,104.87,143c-2.67,1.12-5.64,1-8.36,1.92l.82-.77c2.72-2,3.85-6.19,1.61-9s-6.44-1.74-9.65-2c-.2-3.32.92-7.57-2.14-9.94a5.73,5.73,0,0,0-9.09,2.65c-1.09-1.44-2.07-3.26-4-3.65l-1.64-.46C72.39,107.16,72.37,92.5,72.48,77.85Zm8.22,11.25a6.44,6.44,0,0,0-2.94,5.27c0,4.09-.16,8.19.07,12.27.2,2.11,2,3.42,3.6,4.53,1.17,0,2.34,0,3.52.07,2.33-.76,4.38-2.74,4.32-5.34,0-4.4.15-8.81-.11-13.2C88.07,89.06,84,88.23,80.69,89.09Zm22.54.12a5.46,5.46,0,0,0-3.29,5.12c.07,4.28-.24,8.6.15,12.87,1,4.65,7.94,5.46,10.42,1.61,1.61-3.17.7-6.87.94-10.29-.2-2.64.66-5.87-1.52-7.9C108.39,88.55,105.49,88.65,103.23,89.22Z"/><path class="cls-7" d="M66.92,148.75c.22-2.2,2.12-3.66,4.13-4.19l2.42-.63c1.91,1,4.37,2.22,4.48,4.69.13,4.57.16,9.16,0,13.73-.08,2.42-2.55,3.6-4.37,4.63l-2.66-.57c-1.7-.7-3.79-1.77-3.85-3.88A74.46,74.46,0,0,1,66.92,148.75Z"/><path class="cls-7" d="M72.67,188.77c9.52-.23,19,0,28.56-.1,3.42.07,6.87-.25,10.27.23l.75.21c-3.92.54-7.9.28-11.84.33-9.29,0-18.59.07-27.88-.08Z"/></g></svg>