<svg xmlns="http://www.w3.org/2000/svg" viewBox="0 0 52.47 200"><defs><style>.cls-1{fill:#4e678f;}.cls-2{fill:#68aecd;}.cls-3{fill:#e8d204;}.cls-4{fill:#9c191c;}.cls-5{fill:#de0a27;}</style></defs><title>Mesa de trabajo 3</title><g id="Capa_1" data-name="Capa 1"><path class="cls-1" d="M20.87,5.22c-.12-2.93,2.73-5,5.41-5.22-.25,49,0,97.91-.12,146.86l-.94.19a22.87,22.87,0,0,1-4.37.11c0-3.52,0-7,0-10.53q-5.12,0-10.24,0c-.05-30.89,0-61.78,0-92.68-.26-5.94,4.55-11.16,10.27-12.2C20.87,22.92,20.8,14.06,20.87,5.22Z"/><path class="cls-2" d="M26.28,0c2.6.5,5.39,2.27,5.25,5.26.13,8.87,0,17.74,0,26.6,3.51,1,7,3,8.74,6.27,1.94,3.14,1.76,7,1.74,10.51-.19,29.31.26,58.65-.19,88-3.21-.06-6.42,0-9.62.17h-.6c.05,3.53.06,7.06,0,10.6-1.5-.08-3-.15-4.49-.32l-1-.19C26.33,97.91,26,49,26.28,0Z"/><path class="cls-3" d="M31.65,136.77h.6a13.73,13.73,0,0,1,9.59,10.08c3,.11,6.51-.54,9,1.58a5.44,5.44,0,0,1-1.61,8.89,49.42,49.42,0,0,1-7.34.14,14,14,0,0,1-11,10.81c-1.69,0-3.38-.05-5.07-.06s-3.36,0-5-.12c-5.15-1.13-9.67-5.23-10.37-10.6-3.1-.31-7.24,1.1-9.33-2-1.18-1.29-1-3.1-1.11-4.7,1.21-2.07,3.07-3.93,5.64-3.89a134.84,134.84,0,0,1,15.22.23,22.87,22.87,0,0,0,4.37-.11A5.44,5.44,0,0,0,21,154c.54,2.24,2.71,3.34,4.79,3.79,2.42-.4,5.59-1.53,5.44-4.55A5.19,5.19,0,0,0,27.16,147c1.49.16,3,.24,4.49.32C31.72,143.83,31.71,140.3,31.65,136.77Z"/><path class="cls-3" d="M20.78,181.53a15,15,0,0,1,3.51-3,6.73,6.73,0,0,1,6.94,2.59l.31.31c-.3,4.78.1,9.58-.2,14.36-.64,2.52-3.15,3.57-5.41,4.2-1.9-.94-4.44-1.71-4.89-4.1C20.68,191.12,21.07,186.31,20.78,181.53Z"/><path class="cls-4" d="M25.23,147.05l.94-.19c0,3.64-.08,7.27-.36,10.9-2.08-.45-4.24-1.55-4.79-3.79A5.44,5.44,0,0,1,25.23,147.05Z"/><path class="cls-4" d="M20.81,168.09c1.67.1,3.35.1,5,.12.09,3.15.13,6.31.07,9.47l-1.63.85a15,15,0,0,0-3.51,3C20.87,177.05,20.75,172.57,20.81,168.09Z"/><path class="cls-5" d="M26.16,146.86l1,.19a5.19,5.19,0,0,1,4.09,6.17c.15,3-3,4.14-5.44,4.55C26.09,154.13,26.19,150.5,26.16,146.86Z"/><path class="cls-5" d="M25.85,168.21c1.69,0,3.38.08,5.07.06h.57c-.19,4.29.22,8.59-.25,12.86a6.73,6.73,0,0,0-6.94-2.59l1.63-.85C26,174.53,25.93,171.37,25.85,168.21Z"/></g></svg>