<svg xmlns="http://www.w3.org/2000/svg" viewBox="0 0 70.07 200"><defs><style>.cls-1{fill:#f6e208;}.cls-2{fill:#e9cb00;}.cls-3{fill:#7a9754;}.cls-4{fill:#596c3c;}</style></defs><title>Mesa de trabajo 2</title><g id="Capa_1" data-name="Capa 1"><path class="cls-1" d="M41,1.85c2.39-3.23,8.5-2,9,2.11.26,6.14.13,12.3.07,18.45a10.51,10.51,0,0,1-9.87,7.75c.13-6.72.27-13.44-.1-20.15C40.12,7.29,39.66,4.36,41,1.85Z"/><path class="cls-1" d="M51.39,90.61c3-1.49,7.3-.91,8.42,2.64.13,4.52.33,9.06.43,13.58-1.36,1.61-2.93,3.45-5.3,3a4.49,4.49,0,0,1-5.07-5C50.29,100.16,48.62,94.84,51.39,90.61Z"/><path class="cls-2" d="M31.37,15a10.18,10.18,0,0,1,8.73-5c.38,6.71.24,13.43.1,20.15-1-.07-2-.18-3.06-.32a12.21,12.21,0,0,1-6.94-7.17C30,20.11,30,17.31,31.37,15Z"/><path class="cls-2" d="M10.28,113c1.37-2.87,5.18-4.41,7.9-2.39,2.39,1.36,2.08,4.36,2.09,6.71-.1,3.13.23,6.29-.27,9.39-1,3.31-5.65,4.35-8.16,2.08s-1.36-6-1.6-8.93C10.33,117.59,10.22,115.3,10.28,113Z"/><path class="cls-2" d="M0,153.26c1-1.19,1.74-3,3.45-3.23s3.89-.38,5.2,1c2.49,2.28,1.4,6,1.66,8.95-.18,3,.82,7.1-2.17,9.09s-6.59.43-8.11-2.44C.19,162.19.21,157.72,0,153.26Z"/><path class="cls-3" d="M50.07,22.41c.13,22.38.06,44.76,0,67.13l1.29,1.07c-2.77,4.23-1.1,9.55-1.52,14.28a4.49,4.49,0,0,0,5.07,5c2.37.41,3.94-1.43,5.3-3,0,4.35,0,8.7,0,13,2.78.92,5.67,2.14,7.38,4.64a12.66,12.66,0,0,1,2.43,8.31c-.06,15.2,0,30.4,0,45.6,0,5.73-4.75,10.16-10,11.55a12.17,12.17,0,0,1-6.33,8.53c-5.11,2.49-10.94,1-16.39,1.46,3.44-2.09,4.18-8,.15-9.83-3.08-.83-6.35-.36-9.51-.53,1-1.59,2.47-3.2,2.21-5.22-.07-1.83-1.5-3.15-2.49-4.56,1.33-1.65,3-3.47,2.47-5.78,0-1.86-1.61-3-2.8-4.13,1.43-1.49,3.22-3.15,2.82-5.44,0-2-1.58-3.34-2.81-4.68,1.35-1.34,3.06-2.77,2.78-4.9.29-2.16-1.38-3.62-2.82-4.9,1.37-1.52,3.23-3.12,2.81-5.42.07-2.05-1.57-3.45-2.83-4.83,1.35-1.29,3.25-2.59,2.89-4.75.19-2.15-1.34-3.68-2.89-4.89,1.16-1.38,2.79-2.67,2.86-4.62s-1-3.67-1.72-5.41a57.11,57.11,0,0,0,8.47-.25c3.86-1.3,4.73-7.8.69-9.45-3.14-1.13-6.57-.54-9.84-.62,1.3-1.63,2.74-3.47,2.3-5.71,0-1.84-1.63-2.93-2.75-4.15,1.19-1.34,2.79-2.64,2.82-4.59.29-2.18-1.38-3.86-2.43-5.57,3.39,0,7,.81,10.24-.42,3.52-2,2.66-7.14-.32-9.25,1.16-1.63,2.89-3.24,2.6-5.44.05-1.91-1.63-3.14-2.5-4.67,1-1.54,2.72-2.83,2.52-4.84.27-2.2-1.47-3.72-2.82-5.15,1.14-1.32,2.78-2.53,2.81-4.45.48-2.32-1.36-4-2.71-5.57,1.17-1.39,3-2.7,2.76-4.74.19-2.18-1.52-3.71-2.83-5.19,1.36-1.43,3.08-3,2.81-5.16.11-2.16-1.61-3.72-3.11-5,1,.14,2,.24,3.06.32A10.51,10.51,0,0,0,50.07,22.41Z"/><path class="cls-4" d="M30.2,22.67a12.21,12.21,0,0,0,6.94,7.17c1.51,1.27,3.22,2.82,3.11,5,.27,2.19-1.44,3.73-2.81,5.16,1.31,1.48,3,3,2.83,5.19.19,2-1.59,3.35-2.76,4.74,1.35,1.58,3.19,3.25,2.71,5.57,0,1.91-1.67,3.13-2.81,4.45,1.35,1.44,3.09,3,2.82,5.15.21,2-1.55,3.31-2.52,4.84.86,1.53,2.55,2.75,2.5,4.67.29,2.2-1.44,3.81-2.6,5.44,3,2.11,3.84,7.23.32,9.25-3.24,1.23-6.85.42-10.24.42,1.05,1.72,2.72,3.39,2.43,5.57,0,2-1.63,3.25-2.82,4.59,1.11,1.22,2.77,2.31,2.75,4.15.44,2.25-1,4.08-2.3,5.71,3.27.08,6.7-.51,9.84.62,4,1.66,3.17,8.16-.69,9.45a57.11,57.11,0,0,1-8.47.25c.71,1.74,1.72,3.48,1.72,5.41s-1.71,3.23-2.86,4.62c1.55,1.21,3.08,2.74,2.89,4.89.36,2.16-1.54,3.46-2.89,4.75,1.26,1.38,2.9,2.78,2.83,4.83.43,2.3-1.44,3.89-2.81,5.42,1.44,1.28,3.11,2.75,2.82,4.9.29,2.14-1.42,3.56-2.78,4.9,1.22,1.34,2.81,2.69,2.81,4.68.4,2.29-1.39,4-2.82,5.44,1.19,1.16,2.78,2.28,2.8,4.13.54,2.31-1.14,4.13-2.47,5.78,1,1.41,2.41,2.72,2.49,4.56.27,2-1.21,3.63-2.21,5.22,3.16.17,6.43-.3,9.51.53,4,1.85,3.28,7.74-.15,9.83-5.17-.12-10.35,0-15.52-.05a12.35,12.35,0,0,1-11.51-10C5.39,188.84,1,185.09.26,180c-.48-4.42-.13-8.9-.2-13.34,1.52,2.88,5.24,4.36,8.11,2.44s2-6.05,2.17-9.09c-.26-3,.83-6.67-1.66-8.95-1.31-1.41-3.45-1.27-5.2-1S1,152.07,0,153.26c0-7.33,0-14.64,0-22a12.17,12.17,0,0,1,10.18-11.41c.24,2.94-1,6.74,1.6,8.93S19,130,20,126.73c.49-3.11.16-6.27.27-9.39,0-2.35.3-5.35-2.09-6.71-2.72-2-6.53-.49-7.9,2.39-.13-4-.13-7.94-.07-11.9.15-5.26,4.34-10.33,9.67-10.93.57-7.36.1-14.78.25-22.17.18-4.17-.77-8.78,1.73-12.47a13.7,13.7,0,0,1,8.27-5.74C30.12,40.76,30,31.72,30.2,22.67Z"/></g></svg>